<?xml version="1.0" encoding="UTF-8"?>
<svg id="Layer_1" data-name="Layer 1" xmlns="http://www.w3.org/2000/svg" xmlns:xlink="http://www.w3.org/1999/xlink" viewBox="0 0 720.68 399.99">
  <defs>
    <style>
      .cls-1 {
        fill: url(#linear-gradient-5);
      }

      .cls-1, .cls-2, .cls-3, .cls-4, .cls-5, .cls-6 {
        fill-rule: evenodd;
      }

      .cls-2 {
        fill: url(#linear-gradient-2);
      }

      .cls-3 {
        fill: url(#linear-gradient-3);
      }

      .cls-4 {
        fill: url(#linear-gradient-4);
      }

      .cls-5 {
        fill: url(#linear-gradient-6);
      }

      .cls-6 {
        fill: url(#linear-gradient);
      }
    </style>
    <linearGradient id="linear-gradient" x1="173.22" y1="293.2" x2="173.22" y2="93.2" gradientTransform="translate(0 393.2) scale(1 -1)" gradientUnits="userSpaceOnUse">
      <stop offset="0" stop-color="#ff683b"/>
      <stop offset="1" stop-color="#f54811"/>
    </linearGradient>
    <linearGradient id="linear-gradient-2" x1="303.54" y1="129.59" x2="303.54" y2="218.64" gradientTransform="translate(0 393.2) scale(1 -1)" gradientUnits="userSpaceOnUse">
      <stop offset="0" stop-color="#090b21"/>
      <stop offset="1" stop-color="#2a2d42"/>
    </linearGradient>
    <linearGradient id="linear-gradient-3" x1="376.5" y1="129.59" x2="376.5" y2="256.8" gradientTransform="translate(0 393.2) scale(1 -1)" gradientUnits="userSpaceOnUse">
      <stop offset="0" stop-color="#090b21"/>
      <stop offset="1" stop-color="#2a2d42"/>
    </linearGradient>
    <linearGradient id="linear-gradient-4" x1="433.61" y1="129.59" x2="433.61" y2="244.08" gradientTransform="translate(0 393.2) scale(1 -1)" gradientUnits="userSpaceOnUse">
      <stop offset="0" stop-color="#090b21"/>
      <stop offset="1" stop-color="#2a2d42"/>
    </linearGradient>
    <linearGradient id="linear-gradient-5" x1="500.22" y1="129.59" x2="500.22" y2="218.64" gradientTransform="translate(0 393.2) scale(1 -1)" gradientUnits="userSpaceOnUse">
      <stop offset="0" stop-color="#090b21"/>
      <stop offset="1" stop-color="#2a2d42"/>
    </linearGradient>
    <linearGradient id="linear-gradient-6" x1="576.36" y1="129.59" x2="576.36" y2="218.64" gradientTransform="translate(0 393.2) scale(1 -1)" gradientUnits="userSpaceOnUse">
      <stop offset="0" stop-color="#090b21"/>
      <stop offset="1" stop-color="#2a2d42"/>
    </linearGradient>
  </defs>
  <path class="cls-6" d="M187.59,234.37l-20.77-18.71h0s-1.51-1.51-1.51-1.51l.08.61-.08-.62-.54-3.93-6.2-44.89c.09.1.19.21.29.3l20.77,18.71h0s1.51,1.5,1.51,1.5l-.08-.61.08.62.54,3.93,6.2,44.89c-.09-.1-.19-.21-.29-.3ZM235.15,114.65l-53.18-14.2c-7.22-1.93-12.26,2.58-11.24,10l8.09,58.68-.32-.4-.08-.1-24.13-26.07c-.05-.06-.09-.1-.13-.15-2.2-2.69-5.81-2.42-9.48,1.29l-21.44,21.65c-5.26,5.31-10.45,15.72-11.52,23.14l-11.59,79.89c-1.07,7.41,3.95,15.05,11.15,16.99l53.18,14.2c7.22,1.93,12.26-2.58,11.24-10l-8.09-58.68.33.4.08.1,24.13,26.06c.05.06.09.1.13.15,2.2,2.69,5.81,2.42,9.48-1.29l21.44-21.65c5.26-5.31,10.45-15.72,11.52-23.14l11.59-79.89c1.07-7.41-3.95-15.05-11.15-16.98Z"/>
  <path class="cls-2" d="M338.21,260.42c-.25,1.75-1.89,3.18-3.64,3.18h-17.98c-1.75,0-2.98-1.43-2.73-3.18l9.06-64.44c0-1.46-.42-2.56-1.25-3.29-.84-.73-1.09-.76-1.09-.76-1.74-.19-4.59-.34-6.35-.34h-9.49c-2.23,0-4.45.17-6.67.51l-2.22.33c-1.62.37-3.15,2.11-3.39,3.86l-8.94,64.12c-.24,1.75-1.88,3.18-3.63,3.18h-17.99c-1.74,0-2.98-1.43-2.73-3.18l11.45-82.68c.25-1.75,1.87-3.18,3.63-3.18h15.65c1.75,0,3.18,1.45,3.18,3.22v5.89c2.78-3.6,6.39-6.01,10.84-7.25,4.45-1.24,12.99-1.69,12.99-1.69,1.75-.09,4.61-.17,6.36-.17h5.16c3.89,0,7.11.36,9.67,1.07,2.56.71,4.59,1.79,6.09,3.22,1.5,1.43,2.53,3.22,3.09,5.36.55,2.15.67,4.45.67,4.45.09,1.77-.04,4.64-.29,6.4l-9.42,65.36Z"/>
  <path class="cls-3" d="M396.53,154.49c-.26,1.81-2.04,3.28-3.95,3.28h-19.62c-1.92,0-3.26-1.48-3-3.28l2.14-14.81c.26-1.8,2.04-3.28,3.95-3.28h19.62c1.91,0,3.26,1.48,2.99,3.28l-2.14,14.81ZM380.9,260.32c-.27,1.81-2.04,3.28-3.95,3.28h-19.62c-1.91,0-3.25-1.47-2.99-3.28l12.5-85.19c.27-1.81,2.05-3.28,3.95-3.28h19.62c1.91,0,3.25,1.48,2.99,3.28l-12.5,85.19Z"/>
  <path class="cls-4" d="M467.16,187.75c-.24,1.77-1.9,3.22-3.68,3.22h-22.05c-1.78,0-3.45,1.45-3.7,3.21l-6.49,44.49v2.3c0,.77.14,1.48.43,2.13.28.65.79,1.18,1.53,1.56l.74.38c1.42.11,4.03.2,5.82.2h15.42c1.78,0,3.05,1.45,2.8,3.22l-1.26,9.38c-5.32,2.6-10.5,4.22-15.54,4.84-5.04.62-9.08.93-12.14.93-3.4,0-6.51-.19-9.33-.58-2.83-.38-5.26-1.21-7.3-2.48-2.04-1.27-3.62-3.15-4.75-5.63-1.14-2.49-1.45-6.61-1.45-6.61-.13-1.78-.04-4.68.22-6.45l6.88-47.68c.26-1.77-.99-3.21-2.78-3.21h-8.97c-1.78,0-3.03-1.45-2.79-3.22l1.31-9.39c.25-1.77,1.91-3.21,3.69-3.21h8.97c1.79,0,3.45-1.45,3.7-3.21l2.47-17.22c.25-1.77,1.91-3.37,3.68-3.57l18.35-2.02c1.77-.19,3.02,1.09,2.76,2.86l-2.82,19.94c-.25,1.77,1.01,3.22,2.78,3.22h22.05c1.78,0,3.03,1.45,2.79,3.21l-1.31,9.39Z"/>
  <path class="cls-1" d="M536.15,191.95c-.25,1.76-2.01,3.19-3.9,3.19h-8.6c-1.2,0-2.94.06-5.21.17-2.27.11-4.7.28-7.27.49-2.57.22-5.05.47-7.45.74-2.4.28-2.42.28-2.42.28-1.82.43-3.54,2.22-3.8,3.97l-9.09,59.63c-.27,1.75-2.03,3.18-3.91,3.18h-19.36c-1.89,0-3.21-1.43-2.95-3.18l12.33-82.67c.26-1.75,2.02-3.19,3.9-3.19h16.67c1.89,0,3.43,1.45,3.43,3.22v7.07c3.47-2.59,7.6-4.95,12.38-7.08,4.79-2.14,10.59-3.21,17.42-3.21h7c1.88,0,3.2,1.43,2.95,3.19l-2.11,14.2Z"/>
  <path class="cls-5" d="M586.85,192.1h-13.04c-2.97,0-5.43.55-7.38,1.65-1.94,1.1-2.69,3.16-2.69,3.16-.59,1.67-1.31,4.47-1.57,6.22l-5.69,36.98c0,1.78.8,3.22,2.41,4.32,1.6,1.1,3.61,1.31,3.61,1.31,1.79.18,4.73.34,6.52.34h9.59c2.97,0,5.46-.58,7.47-1.73,1.99-1.15,2.65-3.07,2.65-3.07.57-1.68,1.26-4.48,1.53-6.23l5.68-36.67c0-4.19-3.03-6.27-9.09-6.27ZM615.15,235.86c-.8,5.37-2.31,9.87-4.55,13.46-2.23,3.61-5.04,6.45-8.41,8.55-3.37,2.1-7.29,3.58-11.75,4.44-4.46.86-11.14,1.15-11.14,1.15-1.8.08-4.74.14-6.54.14h-9.6c-5.15,0-9.66-.38-13.56-1.13-3.89-.75-7.18-2.04-9.86-3.87-2.7-1.83-4.7-4.3-6.01-7.42-1.32-3.12-1.74-8.73-1.74-8.73-.13-1.77-.03-4.64.23-6.39l5.2-35.69c.69-4.74,2.23-8.74,4.63-12.02,2.4-3.28,5.35-5.94,8.84-7.99,3.49-2.04,7.35-3.52,11.58-4.44,4.23-.91,9.77-1.2,9.77-1.2,1.79-.1,4.74-.17,6.54-.17h11.49c4.46,0,8.58.4,12.35,1.21,3.78.81,7.01,2.13,9.7,3.95,2.69,1.83,4.8,4.23,6.35,7.18,1.55,2.96,2.01,7.84,2.01,7.84.17,1.77.09,4.64-.19,6.39l-5.34,34.73Z"/>
</svg>